<?xml version="1.0" encoding="UTF-8"?>
<svg width="240px" height="324px" viewBox="0 0 240 324" version="1.1" xmlns="http://www.w3.org/2000/svg" xmlns:xlink="http://www.w3.org/1999/xlink">
    <!-- Generator: Sketch 62 (91390) - https://sketch.com -->
    <title>peep-12</title>
    <desc>Created with Sketch.</desc>
    <g id="Introduction" stroke="none" stroke-width="1" fill="none" fill-rule="evenodd">
        <g id="variations" transform="translate(-366.000000, -1406.000000)">
            <g id="images" transform="translate(126.000000, 110.000000)">
                <g id="a-person/bust" transform="translate(240.000000, 1296.000000)">
                    <g id="body/Striped-Tee" transform="translate(31.056338, 135.052838)" fill-rule="evenodd">
                        <path d="M10.0285775,125.217609 C9.39604225,131.01833 7.96322535,137.408294 10.694493,142.88121 C8.97435211,142.958353 10.3697746,143.456083 11.2980845,143.627277 C11.8281549,144.037719 12.5405493,144.200247 13.2104789,144.143183 C16.6887887,144.878682 20.279493,145.145195 23.8112535,145.561343 C67.9066056,149.225312 112.297521,148.252255 156.475268,146.673468 C157.912099,146.61112 158.876113,145.56705 158.986183,144.160725 C160.605338,123.464881 161.411113,102.704999 161.369915,81.9459616 C160.650549,74.6507836 166.16231,77.4974607 163.222099,67.8844039 C160.858437,57.7448736 157.360056,47.8754489 152.89893,38.4712063 C149.815268,32.3515585 146.909704,25.9123491 142.209634,20.8376172 C140.724423,20.6323961 139.459986,19.156537 138.204845,18.3322708 C136.933648,18.0845683 135.991394,17.0047796 134.703085,16.6727483 C132.247944,16.0338364 126.753718,14.6750654 124.662803,16.3092258 C124.580197,16.2866114 124.496535,16.2673785 124.41393,16.2439186 C124.004704,16.697899 123.442521,16.3574137 123.137239,15.9495076 C122.092521,15.1381339 117.526098,15.0546981 117.007858,13.8094222 C114.306168,11.3577588 113.583317,6.19799579 113.583317,3.17934247 C112.573035,2.04375734 112.503085,2.25464266 111.131746,1.65440783 C109.787239,-0.0421009785 108.163014,-1.51986223 106.350127,-2.68482505 C96.1478028,-9.38632016 81.3428028,-2.32468415 78.9544225,9.32346458 C75.1788592,12.3140712 71.2925915,15.3520204 66.6681549,16.9103061 C64.4113944,15.7489362 61.8404789,15.3782278 59.445338,15.3759029 C57.6599155,15.3110184 55.1927324,14.2781495 54.0324507,16.157899 C34.5119577,22.5506114 22.730831,41.143308 14.3536479,58.759989 C13.1794225,61.2682943 11.7747042,63.8945331 12.1340704,66.7522004 C12.3810423,70.1745957 16.0938592,72.2115898 15.3922394,75.8385722 C14.3724507,85.8155742 13.2123803,95.7824313 12.1507606,105.756474 C11.4432254,112.243449 10.7359014,118.730635 10.0285775,125.217609 Z" id="ðŸŽ¨-Background" fill="#FFFFFF"></path>
                        <path d="M152.834725,77.6228337 C151.572613,78.0799843 149.803458,78.5255108 148.900923,79.5583796 C148.796979,78.5958904 148.691768,77.6336125 148.586134,76.6711233 C151.230782,76.6083523 153.881134,76.5855264 156.527261,76.5115538 C155.278246,76.8171663 154.04381,77.1851272 152.834725,77.6228337 M147.024232,138.163703 C146.114092,138.172157 145.200993,138.235562 144.291486,138.271068 C142.539655,138.338912 140.787824,138.40591 139.035782,138.47164 C135.461768,138.605636 131.887754,138.734771 128.313317,138.859256 C121.235007,139.105479 114.155852,139.332681 107.076063,139.541284 C92.9166972,139.957855 78.7501479,140.210207 64.5926831,140.686591 C60.665007,140.818685 56.7375423,140.921401 52.8134577,141.135288 C50.780007,141.246035 48.7370493,141.341354 46.7133169,141.57701 C45.0060634,141.775679 43.3231056,142.110881 41.6253592,142.360697 C41.7392324,140.147648 41.8459225,137.934176 41.956838,135.721339 C42.061838,133.627703 42.1598662,131.533855 42.2572606,129.439796 C48.8845141,129.786622 55.5195845,129.926748 62.1557113,129.985926 C69.1752887,130.048697 76.1927535,130.222849 83.2127535,130.236376 C97.1101479,130.264063 111.00881,130.089065 124.905782,129.949573 C128.836204,129.90984 132.767049,129.870528 136.697683,129.831006 C138.662894,129.81135 140.628317,129.791483 142.593528,129.771616 C143.574655,129.761894 144.561486,129.782818 145.541556,129.742239 C146.587754,129.698701 147.223035,129.401119 147.982331,128.6969 C148.387331,128.321331 148.404232,127.556454 147.982331,127.183843 C147.373035,126.645534 146.807472,126.232556 145.962824,126.17211 C145.133387,126.11272 144.267824,126.194301 143.435852,126.205292 C141.610923,126.229174 139.785993,126.253479 137.961063,126.277362 C134.451486,126.323648 130.94212,126.369722 127.432542,126.415796 C120.413387,126.508157 113.394232,126.60263 106.3755,126.709573 C99.4966268,126.814614 92.6171197,126.892814 85.7395141,127.065699 C78.7171901,127.242599 71.7031056,127.561949 64.6824718,127.787671 C57.2095141,128.027765 49.7403592,128.314568 42.2843028,128.875491 C42.4634577,124.994043 42.6284577,121.11175 42.7837394,117.229033 C57.5883169,118.035123 72.4030352,118.608939 87.232331,118.63409 C102.681908,118.660509 118.130641,118.396321 133.574514,117.993065 C135.750782,117.936 137.927049,117.878513 140.102894,117.810247 C141.225993,117.774951 142.349092,117.742403 143.47219,117.701824 C144.297824,117.671812 145.146275,117.636517 145.892683,117.241503 C147.365641,116.462043 147.619796,114.186012 145.87219,113.563374 C144.916838,113.2231 143.903387,113.555765 143.670993,114.41744 C143.599585,114.424415 143.531556,114.430121 143.47219,114.432446 C142.629866,114.464149 141.787331,114.487609 140.945218,114.514239 C139.120077,114.572149 137.295148,114.631538 135.470007,114.688814 C132.1005,114.794278 128.730782,114.89171 125.360852,114.9809 C118.480711,115.163295 111.599725,115.311875 104.718106,115.426638 C91.0934577,115.653628 77.4698662,115.863499 63.8469085,116.175029 C56.8315563,116.335656 49.8183169,116.543836 42.8038099,116.721793 C42.9713451,112.501339 43.1295845,108.280885 43.2721901,104.060008 C43.2888803,103.565448 43.3070493,103.070466 43.325007,102.575695 C44.3302183,102.796767 45.3595141,102.919139 46.3835282,103.064125 C48.1605,103.315632 49.9429648,103.501832 51.7275423,103.690145 C55.0900775,104.045002 58.4635986,104.262693 61.8385986,104.449104 C68.7193732,104.828689 75.6020493,105.09647 82.490007,105.306341 C96.1152887,105.721432 109.757472,105.81189 123.388246,105.765182 C130.790007,105.740031 138.236768,105.837464 145.634937,105.514732 C146.090852,105.639429 146.560711,105.626536 147.015148,105.477957 C147.388246,112.076313 147.782261,118.67319 148.169514,125.270701 C148.430852,129.721949 148.661345,134.188204 148.982261,138.640932 C148.35543,138.332149 147.778458,138.157151 147.024232,138.163703 M18.7569085,71.1280391 C17.4588803,70.4927202 16.027331,69.9129863 14.8814155,69.0130568 C13.6288099,68.0290098 13.3212042,66.8737691 13.7061338,65.3296438 C13.7348662,65.2142466 13.768669,65.0994834 13.798669,64.9845088 C23.029162,65.0071233 32.2362042,64.6006967 41.4626831,64.3815264 C50.8366268,64.1589746 60.2071901,63.9719295 69.583669,63.919092 C88.2831761,63.8138395 106.980359,64.2356947 125.670993,64.7609002 C132.40219,64.9498474 139.133176,65.1362583 145.864585,65.3201331 C145.710993,66.9619022 145.770148,68.6440391 145.735289,70.274184 C145.704655,71.7060822 145.712683,73.1400939 145.734021,74.5738943 C142.212613,74.565229 138.692049,74.4891429 135.170218,74.449409 C126.451415,74.3511311 117.737261,74.6015812 109.02057,74.8010959 C91.5878239,75.2001252 74.1504296,75.5139804 56.7210634,76.0391859 C51.9871901,76.181636 47.2228944,76.2566654 42.4672606,76.4593503 C42.3037394,75.6858082 42.1222606,74.9160705 41.9175423,74.1514051 C41.5921901,72.9365636 41.225007,71.6879061 40.2521197,70.8439843 C40.2054296,70.8031937 40.1407817,70.8209472 40.1198662,70.8788571 C39.7503592,71.903272 39.8437394,72.9462857 39.9519085,74.0197339 C40.0374718,74.8676712 40.0953592,75.7179335 40.1382465,76.5692524 C37.1811338,76.7248063 34.2301479,76.9435538 31.2945845,77.2713581 C30.4552183,76.8564775 29.6154296,76.4424423 28.7743732,76.0305205 C25.4357113,74.3953033 22.095993,72.7621996 18.7569085,71.1280391 M125.918387,101.631804 C119.031275,101.687389 112.143739,101.693307 105.256838,101.649135 C91.6243732,101.561636 77.9963451,101.226223 64.366838,100.955272 C60.5735282,100.880243 56.7852887,100.805636 52.9913451,100.805425 C51.0271901,100.805425 49.0564859,100.818528 47.0944437,100.903703 C45.8595845,100.957386 44.6076127,100.965205 43.3784577,101.113573 C43.5267676,97.1412446 43.6812042,93.1649002 43.6763451,89.1906693 C56.6790211,91.1606654 69.8213451,91.7017221 82.9524718,92.0893386 C96.2557817,92.4820274 109.562261,92.6855577 122.871275,92.705002 C126.653599,92.7107084 130.435923,92.7022544 134.218035,92.6798513 C136.038951,92.6692838 137.860077,92.6553346 139.680993,92.6382153 C140.659796,92.6289159 141.644514,92.6487828 142.622472,92.6075695 C143.656627,92.5640313 144.281345,92.318865 145.003669,91.5829432 C145.373387,91.2065284 145.39219,90.5568376 145.003669,90.1819022 C143.714303,88.937683 142.197401,89.2077886 140.521415,89.228501 C138.84057,89.2494247 137.159725,89.2673894 135.478669,89.2826067 C132.116979,89.3132524 128.754866,89.3326967 125.392754,89.341362 C118.809021,89.3580587 112.225077,89.3326967 105.641556,89.2654873 C92.3359225,89.1293777 79.0332465,88.8334873 65.7307817,88.5217456 C58.3765563,88.3494951 51.0238099,88.3968376 43.6755,88.7535969 C43.6727535,88.0937613 43.6666268,87.4337143 43.6537394,86.7738787 C43.6053592,84.2748728 43.3619789,81.7758669 42.9812746,79.3045479 C46.5825423,79.2920783 50.1835986,79.2151468 53.7685986,79.1690724 C62.4861338,79.0572681 71.2017676,78.881636 79.9182465,78.706638 C88.5645845,78.5333307 97.2109225,78.3598121 105.857261,78.1862935 C114.498106,78.0129863 123.16557,78.0005166 131.796063,77.5338552 C136.453669,77.2819256 141.112965,76.9395382 145.774162,76.7596791 C145.783246,77.1876634 145.792331,77.6158591 145.801415,78.0436321 C145.913599,83.2946301 146.118739,88.5405558 146.383458,93.7860587 C146.510641,96.306411 146.644796,98.8267632 146.782754,101.346693 C146.715993,101.340141 146.647754,101.336125 146.577613,101.335491 C139.695993,101.28984 132.801275,101.576008 125.918387,101.631804 M16.9389507,56.0283288 C17.7274014,53.9989432 18.5838803,51.9832955 19.5096549,49.9949119 C23.4400775,51.1047123 27.6326831,51.6772603 31.6890211,52.0583249 C36.007331,52.4643288 40.3340915,52.6923757 44.6701479,52.7809315 C53.2184577,52.9555068 61.7667676,52.5499256 70.305993,52.1969706 C87.8699366,51.4714051 105.43219,50.9415499 123.012613,50.9075225 C127.922261,50.8978004 132.831697,50.9206262 137.740923,50.976 C140.19543,51.0036869 142.649937,51.0368689 145.104232,51.0789276 C146.366556,51.1006967 147.628669,51.1245793 148.890993,51.1505753 C149.449796,51.1619883 150.015359,51.2034129 150.573739,51.1865049 C151.32057,51.1638904 151.866063,50.939225 152.559232,50.668908 C153.355077,50.3588571 153.824514,49.027773 152.831345,48.5866849 C151.839232,48.1458082 151.043176,47.8875382 149.942683,47.8636556 C148.750711,47.8380822 147.558528,47.814411 146.366556,47.7924305 C144.192613,47.7526967 142.018669,47.7193033 139.844725,47.6922505 C135.426697,47.6370881 131.008035,47.6138395 126.589585,47.6144736 C117.892754,47.6155303 109.195923,47.7184579 100.501627,47.923045 C83.0466972,48.3336986 65.6308521,49.550865 48.1822606,50.0731115 C43.3729648,50.2172524 38.5545845,50.245362 33.7450775,50.1010098 C29.0866268,49.9613072 24.4381056,49.5690411 19.7853592,49.4039765 C21.3924718,46.0147632 23.2108521,42.7141057 25.2626831,39.5757652 C33.0189507,39.848407 40.7585282,39.6467789 48.5164859,39.4104892 C52.5874014,39.2864266 56.6583169,39.1606732 60.7288099,39.0209706 C62.764162,38.951225 64.7995141,38.8814795 66.8348662,38.8117339 C67.8174718,38.7779178 68.8000775,38.7443131 69.7826831,38.7107084 C70.8411338,38.6743562 71.9551479,38.7428337 72.9831761,38.4644853 C73.1693028,38.4139726 73.3171901,38.306184 73.4285282,38.1688063 C76.1648662,39.5770333 79.0590211,40.6878904 82.0351479,41.5110998 C88.4952887,43.2980665 95.4434577,43.9684697 102.124796,43.4185362 C107.486768,42.9772368 112.830359,41.6495342 117.544585,39.0499256 C128.190993,40.0303796 138.986556,39.569636 149.65557,39.4998904 C150.674937,39.4933386 151.098951,38.5591703 150.928458,37.7885871 C154.352472,45.1704188 156.620641,53.1731977 158.743669,60.957229 C160.062824,65.7948258 161.236204,70.6626458 162.353176,75.5480078 C162.306697,75.5520235 162.26043,75.5562505 162.214162,75.5606888 C162.343669,75.0255499 162.052542,74.3946693 161.320077,74.3777613 C157.00219,74.278638 152.670359,74.5267632 148.350782,74.5667084 C148.229303,73.485863 148.107824,72.4048063 147.979796,71.3243836 C147.804866,69.8525401 147.596556,68.3842896 147.418458,66.9126575 C147.354021,66.378998 147.294021,65.863726 147.220711,65.356908 C150.640711,65.4499022 154.0605,65.543953 157.4805,65.6341996 C159.700077,65.692955 159.696063,62.2542857 157.4805,62.1866536 C138.686979,61.6109354 119.892613,61.0292994 101.092754,60.7101605 C82.2814859,60.3905988 63.4053592,60.1936204 44.6084577,61.1584344 C34.3651479,61.6838513 24.1471901,62.386591 14.0312746,64.1200861 C14.8169789,61.377182 15.9130352,58.6689393 16.9389507,56.0283288 M32.9359225,29.8999374 C33.2762746,30.1552485 33.3852887,30.3162975 33.8940211,30.4056986 C34.4456408,30.5022857 35.0128944,30.5331429 35.5697958,30.5876712 C36.7613451,30.7043366 37.9558521,30.7478748 39.1514155,30.8045166 C41.5387394,30.9180117 43.9258521,31.0380587 46.3148662,31.1107632 C51.0571901,31.2546928 55.9011338,31.4586458 60.6413451,31.2477182 C61.800993,31.1961487 62.3285282,30.2395773 62.2231056,29.3679687 C63.1121197,30.4693151 64.084162,31.5032407 65.1193732,32.445863 C66.7837394,33.9610333 68.5803592,35.3041644 70.4743732,36.4894168 C69.2456408,36.5344344 67.9945141,36.6885088 66.8348662,36.7383875 C64.8696549,36.8225049 62.9044437,36.9068337 60.9392324,36.9913738 C56.7979648,37.1693307 52.6571197,37.3603914 48.5164859,37.5539883 C40.8531761,37.912227 33.2160634,38.3581761 25.5819085,39.0894481 C27.7621901,35.8116164 30.2044437,32.719773 32.9359225,29.8999374 M157.661979,45.821589 C154.424092,36.9305049 150.249655,27.6947084 142.737401,21.587953 C138.876063,18.4489785 134.574232,16.2775656 129.702401,15.2489237 C129.552824,15.2172211 129.493246,15.4302622 129.639232,15.4782387 C138.064162,18.2433346 144.29888,25.5598591 148.516415,33.0581448 C149.28057,34.4169159 149.988739,35.8082348 150.658458,37.2204775 C150.44043,36.9545988 150.106838,36.7776986 149.65557,36.7853072 C139.693035,36.9526967 129.613246,36.7838278 119.673106,37.7575186 C119.926838,37.5884384 120.18057,37.4195695 120.429444,37.2418239 C123.144866,35.3058552 125.588176,32.9370411 127.607894,30.2541605 C128.824373,30.5627319 130.105077,30.6379726 131.346275,30.7561174 C133.002824,30.9135734 134.670782,30.9856438 136.332613,31.075045 C137.991908,31.1640235 139.657542,31.1724775 141.318739,31.2126341 C142.46043,31.2403209 144.692049,31.4299022 144.693317,29.6828806 C144.694585,27.9339569 142.460641,28.1190998 141.318739,28.1419256 C139.657331,28.1746849 137.992542,28.179546 136.332613,28.2575342 C134.741345,28.3319295 133.14057,28.3921644 131.553951,28.5346145 C130.586134,28.6214795 129.59043,28.678544 128.617331,28.832407 C130.200782,26.4688767 131.461415,23.8944188 132.302894,21.1789902 C132.387613,20.9057143 132.4155,20.6504031 132.401556,20.4139022 C132.758599,20.0370646 132.986345,19.5207358 132.986345,19.0477339 C132.986345,17.9229276 132.110218,17.2639374 131.086204,17.146638 C127.033246,16.6831468 122.567894,16.0226771 119.301697,13.3569159 C117.827683,12.15391 116.642049,10.7317339 115.526134,9.20134638 C114.272261,7.48116634 113.80219,5.31398043 113.797331,3.20829746 C113.79712,3.09015264 113.601275,3.05443444 113.583317,3.17934247 C112.969585,7.44840705 113.854796,12.3217221 116.917542,15.5202975 C119.924725,18.6607515 124.009585,19.8371272 128.154866,20.524227 C126.445711,25.4078982 123.624655,29.6976751 119.664021,33.0710372 C115.250641,36.8299022 109.66388,38.8402661 103.968106,39.5990137 C97.8231761,40.4175734 91.3826831,40.0196008 85.3397958,38.6834442 C79.5185282,37.3958982 73.8240211,35.0934481 69.0861338,31.4191233 C66.6958521,29.5651585 64.4969789,27.3797965 62.580993,25.0409941 C60.9996549,23.1107319 59.7871901,20.9581292 58.4297958,18.8902779 C63.4940915,20.279272 69.6170493,18.3817691 73.8590915,15.7014247 C76.3577535,14.1230607 78.5466972,12.1524305 80.345007,9.80813307 C81.2319085,8.65183562 82.020993,7.43128767 82.6716972,6.12619961 C83.0101479,5.44734247 83.3143732,4.7490411 83.5943028,4.04418787 C83.767331,3.60880626 83.9369789,3.16158904 83.9369789,2.68288063 C83.9359225,2.33034834 83.8471901,2.00190998 83.6705704,1.69756556 C83.3076127,1.31227397 83.2353592,1.20068102 83.4538099,1.36215264 C83.0974014,0.632148728 82.0670493,0.446794521 81.4078944,0.825534247 C81.1621901,0.966927593 80.5843732,1.24062622 80.3002183,1.69756556 C80.1081761,2.00655969 80.0048662,2.376 79.8819085,2.71500587 C79.6877535,3.25014481 79.4921197,3.7791546 79.2483169,4.29442661 C78.6821197,5.49151468 78.0031056,6.6340742 77.2285986,7.70794521 C75.8128944,9.67096673 73.9932465,11.4460978 72.0111338,12.831499 C69.9303592,14.2858004 67.6877535,15.4746458 65.2554296,16.2171194 C62.6864155,17.0010176 60.1435986,17.2351937 57.4930352,17.5224188 C57.4647254,17.4831076 57.4372606,17.4435851 57.4089507,17.4044853 C57.3578239,17.3338943 57.247331,17.3567202 57.2428944,17.4495029 C57.2407817,17.4938865 57.241838,17.5380587 57.2405704,17.5824423 C56.8626127,17.7597652 56.8313451,18.2925793 57.2524014,18.4971663 C57.4085282,20.9498865 58.4665563,23.365409 59.6194437,25.488 C60.0996549,26.3720783 60.6421901,27.228681 61.2299366,28.0561174 C61.0560634,27.9897534 60.8606408,27.9476947 60.6413451,27.9392407 C55.8994437,27.7574795 51.0567676,27.9916556 46.3148662,28.1651742 C43.9957817,28.250137 41.6792324,28.3801174 39.3620493,28.5043914 C38.1677535,28.5682192 36.9705,28.6090098 35.7804296,28.7326497 C35.1852887,28.7945753 34.5865563,28.8431859 33.9945845,28.9323757 C33.9516972,28.9389276 33.9117676,28.9456908 33.874162,28.952454 C35.338669,27.5095656 36.8824014,26.1427632 38.5121197,24.8674755 C43.8584577,20.6835851 49.9987394,17.2747162 56.5501479,15.4207515 C56.6122606,15.4032094 56.6031761,15.2969002 56.5345141,15.3040861 C43.5039507,16.6370724 32.6496549,24.8516243 25.0566972,35.1657299 C20.8435986,40.8888845 17.6481761,47.2245323 14.8985282,53.7575812 C13.5126127,57.0506301 12.2012746,60.4022231 11.1031056,63.8034834 C10.5449366,65.5319061 10.2933169,67.3653699 11.0927535,69.0612446 C11.7058521,70.362317 12.8371901,71.3292446 14.0230352,72.0972916 C14.101838,72.1486497 14.1829648,72.1959922 14.2626127,72.2460822 C13.0503592,76.4709746 12.2382465,80.8061918 11.4590915,85.1283053 C10.6127535,89.8236634 9.87437324,94.5384658 9.24014789,99.2670059 C7.97254225,108.718802 7.00155634,118.190254 6.57754225,127.720039 C6.46028873,130.355789 6.38190845,132.99344 6.3476831,135.631726 C6.33057042,136.951397 6.33808803,138.270857 6.3561338,139.590528 C6.37662676,141.067233 6.17676761,142.73373 6.92824648,144.05171 C7.93240141,145.812681 9.88261268,145.206528 10.7403592,144.002254 C10.7528239,144.018528 10.7657113,144.035225 10.7783873,144.05171 C10.8561338,143.898693 10.9212042,143.745886 10.9767676,143.593292 C11.0690915,143.390184 11.1293028,143.177988 11.1512746,142.961566 C11.3128944,142.14364 11.2520493,141.313033 11.2455,140.424305 C11.235993,139.173957 11.2431761,137.923609 11.2467676,136.67326 C11.2537394,134.312689 11.2805704,131.952963 11.3477535,129.592814 C11.482331,124.874207 11.7451479,120.159616 12.1045141,115.452634 C12.8185986,106.102497 13.8719789,96.7952642 14.7734577,87.4635147 C15.232331,82.7121487 15.7858521,77.9485245 15.8813451,73.1717965 C16.9940915,73.7578708 18.142331,74.2889941 19.2529648,74.8545675 C21.313669,75.9039217 23.374162,76.9532759 25.4346549,78.0026301 C27.4330352,79.0202818 29.4343732,80.031593 31.4365563,81.0422701 C33.4554296,82.0609785 35.4607817,83.4081252 37.7321197,83.6587867 C38.9462746,83.7925714 39.3857113,82.1562975 38.6703592,81.3924775 C37.7361338,80.3944814 36.4955704,79.7743796 35.2484577,79.193589 C36.9054296,79.2542466 38.5645141,79.2867945 40.2244437,79.2994755 C40.2472606,81.3888845 40.1735282,83.4827319 40.0687394,85.5674912 C39.810993,90.6809002 39.4526831,95.7852211 39.1133873,100.893769 C38.4081761,111.512642 37.7255704,122.137221 37.1929648,132.766027 C37.0626127,135.369652 36.9320493,137.972642 36.8014859,140.575843 C36.7381056,141.841409 36.650007,143.108665 36.6140915,144.375288 C36.5739507,145.796407 36.6088099,147.577667 37.9235282,148.455194 C38.8522606,149.074661 39.8517676,148.782787 40.5489507,147.930622 C41.4812746,146.791233 41.4797958,145.140376 41.5547958,143.742082 C41.5721197,143.418928 41.5875423,143.095773 41.6042324,142.772618 C43.0281761,142.957127 44.4417676,143.212227 45.871838,143.351718 C47.6185986,143.522067 49.3763451,143.622458 51.1307113,143.667476 C54.7081056,143.759624 58.2797958,143.792595 61.8582465,143.792595 C68.9399366,143.792806 76.020993,143.671703 83.1016268,143.557362 C97.2633169,143.328681 111.423317,142.931977 125.580148,142.492368 C129.504866,142.370419 133.429373,142.242552 137.35388,142.10919 C139.386063,142.039867 141.418246,141.969276 143.450641,141.896994 C145.374232,141.828517 147.475711,142.077487 149.16881,141.078434 C149.217824,141.686489 149.267683,142.294755 149.321134,142.902176 C149.422754,144.053401 150.231697,145.042309 151.460218,145.042309 C152.614585,145.042309 153.606697,144.062912 153.599303,142.902176 C153.168106,132.401659 152.234937,121.900297 151.495711,111.417534 C150.816908,101.788838 150.18057,92.1468258 149.209796,82.5411663 C149.485289,82.7193346 149.821838,82.8296595 150.21881,82.8313503 C151.487049,82.8366341 152.752965,82.0497769 153.939444,81.6315147 C155.136697,81.2096595 156.353599,80.8444462 157.586979,80.5449628 C158.31712,80.3676399 159.050218,80.2190607 159.785641,80.0924618 C159.696697,81.5953738 159.719514,83.1116008 159.691627,84.6090176 C159.648739,86.9108337 159.577331,89.2118043 159.521345,91.5131977 C159.411275,96.0477182 159.37219,100.58245 159.28557,105.117182 C159.111063,114.258928 158.823739,123.395812 158.335289,132.526356 C158.201134,135.035295 158.050289,137.543389 157.882754,140.050215 C157.794444,141.373268 157.701486,142.696321 157.603669,144.018528 C157.507965,145.318333 157.284021,146.699507 157.773106,147.945417 C157.788739,147.936329 157.804162,147.927663 157.819585,147.918575 C158.160782,148.992744 159.66057,149.506027 160.369162,148.285057 C161.473458,146.381636 161.21888,143.653738 161.345641,141.512337 C161.481908,139.214748 161.604021,136.916102 161.71219,134.616822 C161.928528,130.017628 162.078528,125.417166 162.16557,120.813534 C162.339655,111.604791 162.310077,102.382732 161.747261,93.1875147 C161.593246,90.6732916 161.377754,88.1637182 161.156556,85.6549902 C160.990711,83.7743953 160.899232,81.8424423 160.605993,79.9607906 C162.040077,79.749229 163.485359,79.6264344 164.944585,79.5902935 C166.356908,79.554998 167.267683,78.2807671 166.968317,76.9321409 C164.62388,66.3682192 161.362331,55.9833112 157.661979,45.821589" id="ðŸ–-Ink" fill="#000000"></path>
                    </g>
                    <g id="head/Short-5" transform="translate(78.591549, 38.043053)" fill-rule="evenodd">
                        <path d="M51.1354565,15.9061419 C63.1313673,15.9061419 75.5390849,25.2080901 79.9363235,31.1439108 C83.6333118,36.1344656 85.6238351,58.7015195 85.6238351,73.9525261 C85.6238351,77.1421911 87.3833653,83.1549207 86.8698864,86.205958 C84.9882891,97.3862084 76.7905704,106.762705 60.5655366,106.762705 C44.3405027,106.762705 32.7073806,100.328897 20.6477187,83.0548573 C14.7963146,83.0548573 11.9604867,78.5658008 11.9187155,71.4815998 C11.8916516,66.7587992 13.7745471,63.5382528 17.5674018,61.8199609 C16.2150634,43.1817886 17.2418356,31.4364602 20.6477187,26.5839757 C25.7565432,19.305249 39.1395457,15.9061419 51.1354565,15.9061419 Z" id="ðŸŽ¨-Background" fill="#FFFFFF"></path>
                        <path d="M46.0872887,11.9531061 C53.6612324,11.1859045 61.0830634,11.8305229 68.5471479,13.1643546 C69.1175704,13.2677049 69.4408099,13.6420063 69.5610211,14.091971 C73.0767254,14.2525973 76.5964437,14.510656 80.1075,14.7029847 C81.3816549,14.7727303 82.1039789,16.0321667 81.522993,17.1694427 C81.407007,17.3953761 81.2863732,17.6151804 81.163838,17.8349847 L81.3177803,17.7842135 C82.3740077,17.4452371 83.5149566,17.278116 84.5441197,17.8161746 C85.8539789,18.5009495 86.3675704,20.0118928 86.0781338,21.4025777 C86.0039789,21.7576462 85.8795423,22.0979202 85.737993,22.4299515 C86.0253169,22.4109299 86.3147535,22.4172705 86.6020775,22.4553135 C88.1316549,22.6582098 89.2682746,23.8312039 89.3485563,25.3930826 C89.4668662,27.7515405 87.9478521,30.1442372 86.1584155,31.8327147 C86.4180634,32.3676423 86.5175704,32.9974661 86.4096127,33.635744 C86.1941197,34.8975053 85.2649648,35.6530826 84.1879225,36.1459515 C84.6370775,37.5727773 84.8494014,39.0644877 84.7241197,40.5889573 C84.6822887,41.0978888 84.2373592,41.5182646 83.7677113,41.6214035 C85.5182746,46.4431491 86.404331,51.6199632 87.0415141,56.6642607 C87.4957394,60.2532 87.7196831,63.863063 87.7469366,67.4790552 C87.76027,69.1116188 87.7333738,70.7460193 87.6649126,72.3788427 L87.6372887,72.9910708 C87.5527817,74.7560571 87.5485563,76.6093879 87.2316549,78.3553526 C88.3133451,80.1960023 88.7485563,82.4809104 88.9323592,84.5434779 C89.1605282,87.0965894 88.7992606,89.7300141 87.9941197,92.1586403 C84.9560915,101.335259 75.7872887,107.126257 66.5779225,108.631282 C58.0534859,110.024081 48.1894014,108.149404 43.2077113,100.403204 C43.1295423,100.280621 43.2964437,100.179384 43.3936268,100.259697 C46.9577113,103.159212 51.092007,104.452676 55.5837676,105.082499 C63.3499648,106.169051 72.079331,104.325865 78.3117254,99.4396579 C81.3032746,97.0936697 83.4603169,93.6782489 84.4091197,90.002656 C84.8929225,88.1239632 85.0598239,86.1645346 84.8694718,84.2308908 C84.6751056,82.2695601 83.807007,80.5956658 83.2598239,78.7421237 C83.0760211,78.1163155 83.2703873,77.5351022 83.6527817,77.1210669 C83.7603169,75.6160415 84.0140493,74.0985464 84.1110211,72.5981706 C84.2187676,70.8923624 84.2844718,69.1867656 84.3077113,67.4790552 C84.3520775,63.9368243 84.2041901,60.3882528 83.9063028,56.8610278 C83.3612324,50.4019515 81.9140493,44.0996971 81.0647535,37.6955718 C80.7502465,37.9777174 80.2995211,38.0935721 79.8270798,37.8470694 L79.7781338,37.8202685 L79.5203873,37.6725346 C79.5055986,37.6725346 79.4886972,37.6746481 79.4736972,37.6765503 C77.7098239,37.8479554 75.8802465,37.602789 74.1901056,37.0763155 C72.4215845,36.527016 70.7802465,35.6816149 69.313838,34.5551178 C69.0351761,35.9688399 68.9187676,37.3975679 68.9168662,38.8389769 C68.9147535,39.7393292 67.9619366,40.2066247 67.2055986,39.8219671 C63.8527817,38.1182724 60.6499648,36.1550395 57.6098239,33.9485425 C57.2546831,35.7682685 56.8999648,37.5877832 56.5427113,39.4096227 C56.4055986,40.111517 55.5117254,40.3947264 54.9391901,40.060793 C52.6619366,38.7354153 50.6950352,37.0004407 49.0936268,34.9374505 C48.7739085,35.5490982 48.4532512,36.1606521 48.130403,36.7708595 L47.644331,37.6850043 C47.1647535,38.5832431 46.5225,39.5768008 45.4725,39.8640258 C44.3612324,40.1683703 43.4335563,39.4478771 43.0598239,38.4416384 C42.9457394,38.1290513 42.8401056,37.8075875 42.7429225,37.4842215 C41.7962324,39.6465464 40.7274296,41.7600493 39.5189789,43.7763311 C37.7063028,46.8005425 35.5300352,49.4952587 33.3605282,52.2597205 C32.7013732,53.0989926 31.5732042,52.2977636 31.4823592,51.4821628 C31.4295423,51.0023977 31.3851761,50.520519 31.3469366,50.0405425 C30.0827113,52.5928086 28.7635563,55.1211922 27.3263028,57.5762372 L27.5320775,58.3829613 L27.5320775,58.3829613 C28.1251056,60.7665699 28.6175704,63.1670865 29.1529225,65.5633761 C29.3257394,66.3364955 28.9150352,67.4418575 28.0120775,67.5735288 C26.9333451,67.7307734 25.9127113,68.2821863 24.8077817,67.9028125 C23.6029225,67.4889886 23.3648239,66.4472431 22.7960915,65.4598145 C22.6826408,65.2630474 22.5505986,65.0823429 22.4086268,64.9107264 L22.3725,64.9576462 L22.3725,64.9576462 C22.2837676,65.0741002 22.0725,64.94729 22.1253169,64.8141393 L22.1872183,64.6602763 L22.1872183,64.6602763 C21.6985563,64.1414114 21.1137676,63.7085659 20.5760915,63.2429613 C19.2983451,63.0275953 17.8610915,63.2634622 16.9807394,63.7827499 C14.9758099,64.9661002 14.0548944,67.4050826 14.0358803,69.6477205 C14.0126408,72.2726912 14.8258099,75.2231413 16.1990493,77.4676814 C16.8034859,78.4546873 17.6316549,79.3463742 18.7258099,79.7840806 C19.8119366,80.2192509 20.9886972,80.084198 22.0936268,80.4940063 C22.8246127,80.7668595 23.2746127,81.5784446 22.8330634,82.3137323 C22.8034859,82.3646677 22.7696831,82.4109534 22.7377817,82.4597753 L23.0664124,82.8961041 C23.2924531,83.1983507 23.5281338,83.5219515 23.7478521,83.8587029 C24.3098239,84.5056462 24.9013732,85.1291295 25.4739085,85.7652939 C26.5321479,86.9380767 27.5591197,88.1429847 28.6004577,89.3326755 C29.5830634,90.4551569 30.6225,91.5095836 31.6936268,92.5473135 C32.7055986,93.5303037 33.9689789,94.356472 34.8985563,95.4049808 C35.8025704,96.4279162 36.0478521,98.2136149 34.5603169,98.805607 C32.9146919,99.4621139 31.4578661,97.9234593 30.3500854,96.8976632 L30.3034859,96.8546325 C28.2727817,94.9852391 26.4389789,92.8489104 24.9827113,90.496793 C23.5401761,91.4791491 21.4536972,91.5729886 20.0172887,90.5908438 C19.2613732,90.0740924 18.6814437,89.205654 18.3996127,88.2609182 C18.133838,88.320519 17.8682746,88.3553918 17.6092606,88.3513761 C17.4759507,88.4287303 17.3422183,88.503971 17.207007,88.5741393 C16.135669,89.1318928 14.8196831,88.8827108 14.3295423,87.6968243 C13.8832165,86.620284 14.343139,85.3976604 14.7451623,84.3604172 L14.8281338,84.1461393 C15.0563028,83.5545699 15.3077113,82.9099515 15.6203873,82.3033761 C14.7499648,81.6481902 14.0060915,80.8342802 13.3767254,79.9087773 C11.2619366,76.7913605 10.2055986,72.2323233 10.6725,68.5127695 C10.9534859,66.2682294 12.0075,63.9433761 13.7335563,62.4298967 L13.6703873,62.2650434 L13.6703873,62.2650434 C13.1865845,61.0373096 12.7469366,59.804926 12.4619366,58.5074466 C12.1281338,56.9899515 11.9652465,55.4175053 11.8175704,53.8725346 C11.5048944,50.6092861 11.5894014,47.272065 12.0055986,44.0214975 C12.7872887,37.9029065 14.7689789,31.8963311 18.2865845,26.8049025 C17.2891901,25.610562 16.4992606,24.2050826 16.9110211,22.5884642 C17.0992606,21.8464133 17.5279225,21.1428282 18.1746127,20.7178027 C18.5314437,20.4834153 18.9563028,20.4474857 19.3133451,20.2530434 L19.420702,20.1939098 C19.5775319,20.1023576 19.4575725,20.1120604 19.3640493,19.6866247 C18.994331,17.9871569 19.300669,16.3451765 21.1703873,15.7808712 C22.9302465,15.250382 24.5950352,16.3768791 25.6365845,17.7189534 C28.3619366,15.7848869 31.9534859,14.7727303 35.1119366,13.9125346 C38.7034859,12.9379984 42.3877817,12.3295209 46.0872887,11.9531061 Z M16.6493451,68.9543436 C16.6364577,67.5699992 17.9484296,66.716144 19.2394859,66.9425002 C20.1063924,67.0934194 20.8295711,67.6109969 21.508653,68.1459648 L21.8397397,68.4080223 C22.6666643,69.0574741 23.6160352,69.7576297 24.108993,70.6770599 C24.8315282,72.0339288 23.3042746,73.859784 21.8782183,72.9087076 C20.8999789,72.2528877 20.2729458,71.2020775 19.631284,70.2259205 L19.564838,70.1252243 C19.2732887,69.6877292 19.0176549,69.2227585 18.6181479,68.871917 L18.5318485,68.7963136 C18.4005527,68.6843567 18.2595499,68.582175 18.0899789,68.5337566 C17.7628548,68.4396716 17.1569499,68.5714301 17.012697,68.961021 L16.999838,69.0008407 C16.9470211,69.1976078 16.6514577,69.1551264 16.6493451,68.9543436 Z" id="ðŸ–-Ink" fill="#000000"></path>
                    </g>
                    <g id="face/Smiling" transform="translate(112.183099, 77.354207)" fill="#000000" fill-rule="evenodd">
                        <path d="M30.968993,50.9198978 C29.548794,50.3403012 28.2816173,49.3734958 27.3551889,48.1384646 C27.0331038,47.7091169 26.9495926,47.2557326 27.017159,46.8410547 C27.0931327,46.3747786 27.3688808,45.9521824 27.7449394,45.6687178 C28.1221628,45.3843752 28.5940214,45.2441445 29.0502103,45.3156301 C29.4466117,45.3777469 29.8412104,45.5948709 30.1535058,46.0451781 L30.2187521,46.1352289 C30.7695298,46.8806513 31.4872438,47.4922614 32.3050288,47.8864795 C33.0932406,48.2664417 33.9747757,48.4437847 34.8870208,48.3406561 C36.6244504,48.1443157 37.8219743,47.2043274 39.0948115,45.9278391 C39.2525834,45.7666792 39.4104563,45.6004672 39.5690946,45.4315797 C39.6692778,45.278484 39.8083069,45.1800892 39.962667,45.1284632 C40.1340565,45.0711416 40.327938,45.0743848 40.5055187,45.1363808 C40.6767961,45.1961763 40.8299095,45.309486 40.9325762,45.4602937 C41.0301525,45.6036243 41.0854754,45.7806897 41.0675245,45.9843589 C40.9510195,47.3072301 40.2596776,48.4878363 39.2776553,49.4148615 C38.1869942,50.4444414 36.7412431,51.1567117 35.3801317,51.4065272 C33.8805866,51.6817086 32.3525901,51.4845569 30.968993,50.9198978 L30.968993,50.9198978 Z M36.0875289,30.5120405 C37.6828906,31.482148 40.1137318,33.7442494 38.3974899,36.149264 C36.3773089,38.2698449 33.4687045,35.8384541 32.0353946,34.7388307 C30.7063626,33.8866164 29.2131206,36.0784478 30.4461973,37.0735516 C40.8033244,44.7445605 45.006466,30.7657101 36.8944406,29.3714319 C36.0012775,29.2177885 35.6695544,30.2119271 36.0875289,30.5120405 Z M17.5274577,21.5886716 C17.7037243,19.3998697 21.0359789,18.9028321 21.3674577,21.0687499 C21.6642887,23.0089456 21.3148521,24.7912626 20.4412606,26.5380728 C19.6065423,28.2068947 17.5085456,27.4283107 17.3498837,25.9087021 C17.1372039,23.8717299 17.4178099,22.9502317 17.5274577,21.5886716 Z M42.8930282,20.6196517 C43.3576056,20.0109628 44.0283803,19.5954481 44.8320423,19.8302583 C47.3429577,20.5642779 46.6028873,24.1303914 45.7210563,25.8662114 C45.2419014,26.8088337 43.6930986,27.0478708 42.993169,26.2178982 C41.8523239,24.864411 41.3059859,22.1614521 42.756338,20.8282544 C42.7956338,20.7593542 42.8393662,20.68982 42.8930282,20.6196517 Z M20.4058944,12.0111429 L20.802522,11.9416942 C22.0295218,11.7294045 23.5551549,11.5254176 24.4231479,12.5122544 C24.8835,13.0355577 25.0419507,14.0081918 24.4231479,14.509092 C23.3346972,15.3904227 22.1313169,15.0488806 20.8269507,15.1234873 C19.7520211,15.1852016 18.7189225,15.3631585 17.6835,15.6592603 C15.4119507,16.3087397 13.5610352,17.4944149 11.6209648,18.7963327 C11.3663873,18.9671037 11.1065282,18.6414129 11.228007,18.4032211 C12.3479366,16.208771 14.5182887,14.4061644 16.6922324,13.3073542 C17.8525141,12.7208571 19.1222324,12.2343288 20.4058944,12.0111429 Z M40.6041287,11.0281289 L40.9077055,11.0902829 C44.2113469,11.7811043 48.5035506,13.1610768 50.0679842,16.4073021 C50.1275964,16.8663298 50.0646105,16.9647086 50.0133917,17.0289838 L49.9963385,17.0503723 C49.9541341,17.1052595 49.9204583,17.1809212 49.7215736,17.2433957 C49.6663832,17.2302408 49.6106433,17.216308 49.5543131,17.2015401 C48.8372041,17.0135386 48.2698321,16.7545401 47.720556,16.4857982 L47.1250012,16.192275 C46.4340388,15.8533498 45.7369757,15.5267598 44.9982488,15.2856588 C43.4217423,14.7712438 41.8001698,14.4088706 40.1534741,14.2153715 C39.7965654,14.1734678 39.4528848,14.0529641 39.1817455,13.8464404 C38.92438,13.6504079 38.7277692,13.3789964 38.6381257,13.0182314 C38.5219478,12.5513438 38.5553348,12.1978716 38.8057421,11.7766707 C38.9940329,11.4603578 39.263447,11.2411116 39.5728025,11.115213 C39.888177,10.9868648 40.2472278,10.9566068 40.6041287,11.0281289 Z" id="ðŸ–-Ink"></path>
                    </g>
                    <g id="facial-hair/*-None" transform="translate(104.577451, 109.479380)"></g>
                    <g id="accessories/Eyepatch" transform="translate(88.521127, 88.978474)" fill="#000000" fill-rule="evenodd">
                        <path d="M70.8584266,-12.5992383 C72.0795533,-13.0179232 73.053497,-11.7474966 72.81899,-10.6402324 C72.5422294,-9.3362011 71.181666,-8.28959445 70.2795533,-7.37043202 C69.3330745,-6.40244768 68.3675815,-5.45348486 67.3661731,-4.54045159 C65.4542012,-2.79448682 63.4725111,-1.15039288 61.3830745,0.381896745 L60.7441885,0.850227861 C58.8287857,2.25211436 56.9192012,3.62147404 54.8675815,4.83504743 C53.7563139,5.49023334 52.6344829,6.12428422 51.4978632,6.73508657 C51.0924407,6.95277737 50.5978632,7.28861299 50.0889195,7.53821768 C51.9499759,8.97539968 53.3823702,11.1692157 53.6929336,13.2129731 C54.4619477,18.2896071 51.1915252,22.9942647 46.5772294,24.8647147 C44.2767364,25.7967695 41.7161731,26.0672979 39.2570181,25.786202 C36.7556097,25.5006678 34.2203984,24.7609418 32.5957505,22.7110553 C31.1527928,20.8913292 30.6330745,18.5688009 30.5295533,16.2881198 C30.4809618,15.2060063 30.4915252,14.1405895 30.7196942,13.183384 C29.7246238,13.191838 28.7295533,13.187611 27.7429336,13.1981785 C25.3049054,13.2214271 22.8624407,13.2322059 20.4225111,13.1643625 C17.9063139,13.0925034 15.4027928,12.9804877 12.8950463,12.7566678 C11.7943421,12.6571218 10.6999759,12.4943821 9.6053984,12.3379829 C8.54293361,12.1879241 7.3703984,12.1308596 6.37744066,11.695478 C6.30983502,11.6680024 6.33809938,11.5707813 6.39645474,11.5515484 C7.45490545,11.2093723 8.65701812,11.2704525 9.75983502,11.2030318 L10.8347005,11.1378102 C11.7299701,11.0843133 12.6246238,11.0350989 13.5225111,11.0062647 C15.5966308,10.9380249 17.669133,10.9212424 19.7428483,10.8856893 L20.631666,10.8690983 C23.0718069,10.8204877 25.5119477,10.7930122 27.9520885,10.7148126 C28.9640604,10.6831101 29.9781449,10.623932 30.9943421,10.5689809 C31.1126519,10.3003547 31.2861026,10.0551883 31.4527928,9.81657385 C31.9513843,9.10220986 32.5851871,8.47238598 33.2422294,7.90174019 C34.5877928,6.72642121 36.1027928,5.85375585 37.7929336,5.26831553 C39.4677857,4.69013158 41.9174308,4.40330514 43.6893335,4.44062785 C45.4612362,4.47795057 47.9864195,4.72796328 48.7978632,6.17712179 C48.8823702,6.3271805 50.4267364,6.0376306 50.8851871,5.68657776 C51.9563139,4.86886348 53.0084266,4.02768931 54.0413139,3.16538011 C55.959835,1.56123138 57.9328632,-0.0175553093 59.7499759,-1.73371969 C61.6239195,-3.50483515 63.4830745,-5.30553965 65.2661731,-7.16542224 C66.1619477,-8.09747703 67.0556097,-9.03164533 67.9239195,-9.98694866 C68.8112435,-10.9612735 69.5739195,-12.1617432 70.8584266,-12.5992383 Z" id="ðŸ–-Ink"></path>
                    </g>
                </g>
            </g>
        </g>
    </g>
</svg>