<?xml version="1.0" encoding="UTF-8"?>
<svg width="240px" height="324px" viewBox="0 0 240 324" version="1.1" xmlns="http://www.w3.org/2000/svg" xmlns:xlink="http://www.w3.org/1999/xlink">
    <!-- Generator: Sketch 62 (91390) - https://sketch.com -->
    <title>peep-11</title>
    <desc>Created with Sketch.</desc>
    <g id="Introduction" stroke="none" stroke-width="1" fill="none" fill-rule="evenodd">
        <g id="variations" transform="translate(-366.000000, -1082.000000)">
            <g id="images" transform="translate(126.000000, 110.000000)">
                <g id="a-person/bust" transform="translate(240.000000, 972.000000)">
                    <g id="body/Button-Shirt-1" transform="translate(31.056338, 135.052838)" fill-rule="evenodd">
                        <path d="M16.4080469,150.998477 C44.0090737,155.192513 72.110794,155.40344 99.9411735,153.88045 C110.955378,153.05555 122.003343,152.906971 133.008686,153.961609 C139.511795,154.445389 168.024536,156.625679 170.354143,150.798963 C168.887932,119.771683 165.918373,88.4802153 156.808619,58.6396673 C153.062173,48.0440431 149.844462,39.2498092 142.532393,30.4817309 C140.227895,28.0877661 135.258036,23.066896 132.410433,21.4293539 C129.943256,20.0109821 128.912083,20.5169872 127.495455,18.1211203 C126.087716,15.4744421 125.049395,11.0542733 123.050542,9.18669838 C121.015362,7.28518299 117.999252,7.96550545 114.260904,8.57796948 C114.947698,-0.706782862 110.663571,-3.07144814 104.761589,-4.83706849 C94.3873354,-8.79798434 84.1416866,-6.80813577 81.5306104,5.82575073 C76.6891883,5.82575073 73.969679,7.91000614 71.0296751,9.91267429 C69.8278494,10.7313324 70.6638845,12.8170749 69.2283592,13.4605183 C66.5723897,14.4065213 61.8789101,14.1748053 59.3216229,15.3390557 C47.6926933,20.6333321 37.3352039,28.3107799 30.5331777,39.5232446 C15.2838599,63.462047 4.80874987,113.889382 6.62141697,142.262313 C5.82722782,143.508223 6.92546228,145.294767 7.20461006,146.634517 C7.55697347,147.799902 8.69804013,148.575135 9.88890185,148.442618 C11.5507068,150.230431 14.1210607,150.628403 16.4080469,150.998477 Z" id="ðŸŽ¨-Background" fill="#FFFFFF"></path>
                        <path d="M130.652958,20.7275037 C130.483521,20.6330301 130.632676,20.3908227 130.802958,20.4709245 C138.988521,24.3124274 145.268028,31.0521769 149.686479,38.8393785 C154.261708,46.9026765 156.869352,56.0575559 159.117487,65.0054314 L159.198592,65.3287562 C161.595845,74.900811 163.634155,84.5717777 165.469225,94.2664157 C167.327746,104.083848 168.819507,113.96215 170.019507,123.881241 C170.613169,128.785625 171.142394,133.698674 171.555211,138.621656 C171.761408,141.081774 171.948803,143.543793 172.117183,146.00687 C172.184451,146.991931 172.247797,147.976993 172.302139,148.96292 L172.341127,149.702541 C172.374718,150.373367 172.454366,151.045883 172.288732,151.707621 C172.145704,152.278056 171.843803,152.794596 171.578239,153.318322 C171.053028,154.353515 169.613239,154.182956 169.047254,153.318322 L168.882895,153.066456 C168.50757,152.48615 168.195713,151.946843 168.077958,151.224686 C167.964085,150.525328 167.959859,149.792576 167.908732,149.086243 C167.814718,147.78665 167.734648,146.485789 167.64338,145.185774 C167.451761,142.44921 167.236479,139.714337 166.998169,136.981578 C166.526831,131.58665 166.021268,126.196584 165.400352,120.816451 C164.297113,111.254964 162.912676,101.718838 161.280634,92.2334372 C159.686042,82.9673753 157.670161,73.7953212 155.567146,64.6348007 L155.349296,63.6871984 C151.667113,47.6934763 145.992042,29.2747209 130.652958,20.7275037 Z M43.4654789,83.3553299 C43.5256901,83.1953378 43.7847042,83.1585628 43.8284366,83.3553299 C44.3798451,85.8389072 44.4343521,88.3968798 44.5186479,90.9396352 C44.6016761,93.4479405 44.5982958,95.9676587 44.5617465,98.4774434 C44.4269577,107.701404 44.1738592,116.917545 43.9549859,126.140027 C43.8455493,130.753169 43.7428732,135.366946 43.6640704,139.980723 C43.6342817,141.711207 43.6092465,143.441571 43.58843,145.172084 L43.5629676,147.454431 C43.5503059,148.463512 43.5238212,149.460255 43.400831,150.468348 C43.3197042,151.131353 43.1468873,151.763714 42.7809718,152.332034 C42.5212867,152.73544 42.1511868,152.940208 41.790444,153.214346 L41.7229437,153.266625 C41.2628028,153.630359 40.7781549,153.632895 40.3224507,153.266625 L40.1901246,153.16188 C39.7548166,152.821333 39.3786031,152.555259 39.1006901,152.0167 C38.7140704,151.267886 38.652169,150.454398 38.5864648,149.629287 C38.4867465,148.378093 38.5528732,147.108512 38.5657606,145.853725 C38.5915352,143.336543 38.6263944,140.819784 38.6705493,138.302813 C38.8325915,129.072935 39.1528732,119.841365 39.7366056,110.627972 C40.0116015,106.288179 40.3844735,101.934346 40.8846361,97.6121079 L40.9799155,96.8020697 C41.1316056,95.530375 41.2699859,94.2360658 41.4259014,92.9375295 C39.0983662,91.2997761 37.0524507,89.3126607 35.3078028,87.0583984 C35.1793521,86.8924885 35.390831,86.6597918 35.5459014,86.820418 C37.3285775,88.6669855 39.3725915,90.1390403 41.6354789,91.2966059 C42.0062535,88.5784297 42.5160423,85.8748368 43.4654789,83.3553299 Z M82.3498099,1.07961957 C82.3817113,1.05489159 82.4315704,1.04411272 82.461993,1.07961957 C82.9622746,1.66310009 82.8608227,2.55521647 82.876946,3.29461384 L82.8788239,3.36347084 C82.9147394,4.44452759 82.9215,5.52220274 82.9179085,6.60389354 L82.9067113,10.0470012 L82.9067113,10.0470012 C82.9052089,10.5204258 82.8668156,11.0132217 82.8910943,11.4894666 L82.9037535,11.6737644 L82.9037535,11.6737644 C83.1665704,11.9430247 83.2886831,12.3321205 83.1995282,12.7229072 C83.1834718,13.2242301 82.9215,13.6424924 82.5393169,13.9054121 L83.3584278,15.0679444 L83.3584278,15.0679444 L84.178331,16.2298427 C85.8682606,18.6276117 87.5767817,21.0040344 89.3573451,23.3358622 C91.1729789,25.7133417 93.1098803,28.0012086 95.1367817,30.2009425 C96.126993,31.2758701 97.1341056,32.3357918 98.164669,33.3720423 C98.5834542,33.7932106 99.0126972,34.203917 99.4371569,34.6192303 L99.8594577,35.0366372 C100.108965,35.2862419 100.422908,35.533099 100.588542,35.8494904 C100.685937,36.0361127 100.70812,36.496011 100.742979,36.5720971 C101.055655,37.2596196 100.522204,38.3558935 99.6357254,38.012872 L99.675951,37.9860957 C99.8373505,37.8737995 99.7339284,37.872171 99.3655141,37.9813808 C99.1331197,37.9806123 98.9152173,37.9270935 98.711648,37.821142 L98.651007,37.787784 C98.3643332,37.6420498 98.1084418,37.3599909 97.8755232,37.1344374 L97.8177676,37.0793378 C97.285162,36.5801284 96.7774859,36.0506959 96.2670634,35.528872 C95.2016408,34.4402067 94.1603028,33.3282928 93.1521338,32.1865785 C91.1408662,29.908645 89.2341761,27.5383515 87.4284718,25.094508 C85.5891761,22.6054356 83.8795986,19.9884963 82.4093873,17.264191 C81.8514296,16.2302654 81.3399507,15.1764728 80.8495986,14.1104219 C79.8950915,13.803964 79.6734718,12.7884258 79.7400211,11.6443867 C79.387838,10.8239249 79.0705141,9.98655499 78.8829085,9.131009 C78.8573451,9.01370959 79.0079789,8.90317339 79.0981901,9.00567828 C79.4034718,9.35271546 79.6861479,9.72215577 79.957838,10.1011068 C80.1217817,9.29903249 80.3292465,8.56078591 80.4268521,8.09010881 L80.8500211,6.01295812 L80.8500211,6.01295812 C78.4654437,5.88868415 75.8524859,6.86871546 74.2086127,8.58445714 C74.1203028,9.03125166 73.7765704,9.35102466 73.4415,9.76865284 C73.0586831,10.2460932 72.724669,10.7818661 72.4755845,11.3421558 C71.9231197,12.5840501 72.2349507,14.4141323 71.1627676,15.3252634 C71.051007,15.4201597 70.9261479,15.486101 70.7972746,15.5268916 C71.3060433,18.0224555 71.0751579,20.7723126 71.0640669,23.3041072 L71.0636831,23.5269229 C71.0662183,26.3604963 70.9715704,29.1963945 70.8621338,32.0276431 L70.7507958,34.8297202 C70.6065254,38.5667789 70.5128239,42.3056501 70.8758662,46.0222027 C72.5332606,44.5537409 74.2470634,43.1522771 76.0198099,41.8171773 C77.1854437,40.9390873 78.3744473,40.0922249 79.5850403,39.277184 L80.5686891,38.61967 C81.7473929,37.8289489 82.9547333,37.0153262 84.2453028,36.4490912 C85.933331,35.7087311 87.5385423,35.9631969 89.1682606,36.7225785 C90.7912183,37.4790012 92.3657958,38.3575843 93.9576972,39.1774121 C95.5768521,40.0109777 97.1993873,40.8375687 98.8208662,41.6662732 C99.8949507,42.2153613 101.468894,42.7109777 102.256711,43.7216548 C102.306993,43.4980462 102.365514,43.2750716 102.433965,43.0529425 C102.355796,42.7141479 102.386007,42.3480892 102.575937,41.9991499 C105.22312,37.1332321 107.672345,32.1510716 110.104458,27.1750403 C111.335514,24.6568016 112.505937,22.1087624 113.739317,19.5920031 L114.938315,17.1408094 C115.13866,16.7324806 115.339599,16.3244571 115.541641,15.9170442 C115.844176,15.3070873 116.159176,14.7030481 116.465092,14.0945706 C116.594387,13.8375083 116.756434,13.582154 116.882315,13.3226516 L116.941923,13.1925276 C116.944802,13.1857366 117.235305,12.2718572 117.010909,12.3589673 L116.99157,12.3682614 C116.877063,12.433146 116.785373,12.2890051 116.859528,12.1970677 C117.176852,11.8045902 117.618824,12.1522614 117.79988,12.5155726 C118.298777,13.515416 117.384667,15.0849183 117.033043,16.0423159 L117.013754,16.0958466 C115.922556,19.1855765 114.687063,22.2173965 113.421148,25.2386489 C110.993894,31.0311264 108.38643,36.7346254 105.784669,42.4480579 L105.753824,42.5463358 L105.753824,42.5463358 C106.308613,42.1208877 106.901007,41.7347507 107.408261,41.3589699 C108.687908,40.4106411 110.004951,39.5090207 111.31988,38.6103593 C113.731302,36.9622233 116.208085,35.4227552 118.725857,33.9440645 L119.229951,33.6491225 C120.487627,32.9161597 121.733472,32.3218427 123.226289,32.5418583 C124.613183,32.7463679 125.902553,33.4916191 127.155467,34.0970108 L127.284951,34.1591108 L131.15643,36.0003945 C130.742556,34.349326 130.294458,32.7062888 129.826923,31.0693808 C128.915092,27.8765119 127.911782,24.7104845 126.823754,21.5727781 C125.807556,18.6411382 124.709021,15.7415717 123.547092,12.864941 L123.197205,12.0015982 C122.723465,10.8171951 122.25239,9.52567171 120.898331,9.16102074 C119.545162,8.79644149 117.992979,9.33707554 116.756218,8.56543562 C116.643824,8.49526732 116.657768,8.30991311 116.794035,8.27567436 L117.557177,8.08325809 C118.990051,7.72668065 120.669833,7.36797652 122.02481,7.71475068 C123.499246,8.09264501 124.719106,9.33052368 125.434458,10.6174356 C126.229849,12.0490168 126.790526,13.6511229 127.39417,15.1776753 L127.48988,15.4180462 C128.182627,17.1456235 128.848965,18.8835569 129.48657,20.6324806 C130.761359,24.1282145 131.921852,27.666007 132.972275,31.2357135 C133.478472,32.9561049 133.958683,34.6847389 134.420303,36.4176 C134.552979,36.915964 134.771852,37.5202145 134.95143,38.1504611 C135.157204,38.3512438 135.351993,38.5752751 135.534739,38.8307977 C135.837908,39.2547663 135.620303,39.7518622 135.243401,40.0056939 C135.228824,40.4393847 135.132486,40.8472908 134.902204,41.1968642 C134.003261,42.5619757 131.626711,42.2102888 131.723261,40.3751342 C131.737838,40.0942497 131.847275,39.8260462 132.012908,39.5994787 L132.008261,39.5627037 L132.008261,39.5627037 L131.989458,39.4954943 L131.989458,39.4954943 C131.576852,39.2976705 131.162556,39.0772321 130.725866,38.8614434 L126.662768,36.8529816 L126.662768,36.8529816 C125.486007,36.2711342 124.181641,35.3722614 122.873049,35.150555 C121.653091,34.9439084 120.365945,35.853179 119.317626,36.4017916 L119.249599,36.4370442 C116.715444,37.7364258 114.200092,39.0789229 111.694669,40.4324102 C110.471641,41.0933025 109.264458,41.7816705 108.046077,42.4503828 C107.027345,43.0096157 105.927908,43.8123241 104.782838,44.1278701 C104.293754,44.5083006 103.712768,44.4573652 103.245866,44.1697174 C103.459246,45.4917135 103.446148,46.848371 103.511641,48.1999562 C103.599716,50.0068603 103.613174,51.8187742 103.642231,53.6281275 L103.654035,54.3065002 C103.730937,58.3065159 103.772134,62.3075883 103.787345,66.3084493 C103.84143,80.5551499 103.684035,94.8060775 103.647275,109.052778 C103.628683,116.21079 103.486923,123.374931 103.301007,130.530195 C103.222172,133.562161 103.057419,136.590496 102.879449,139.617887 L102.7815,141.269115 C102.574246,144.753224 102.451923,148.2758 101.807134,151.712989 C101.723049,152.161263 100.964599,152.172676 100.890232,151.712989 C100.296835,148.029946 100.263832,144.266099 100.149744,140.539867 L100.125655,139.795158 C99.9885423,135.794297 99.9234718,131.795972 99.9374155,127.792997 C99.9881197,113.54059 100.358472,99.2970599 100.66143,85.0486685 C100.813754,77.8898114 100.916218,70.727784 101.152838,63.5712517 C101.271148,59.9903436 101.405092,56.4117605 101.563965,52.8323319 C101.634951,51.2341538 101.703187,49.6375939 101.809293,48.0418026 L101.857204,47.3579366 C101.890162,46.9117761 101.916782,46.4711108 101.949106,46.0344611 C100.507627,46.561146 99.1893169,45.5859757 97.8925563,44.9187429 C96.3980493,44.1496391 94.9041761,43.3792673 93.4090352,42.6116431 L91.912705,41.8453495 L91.912705,41.8453495 L88.9181197,40.3168016 C87.5698099,39.6284337 86.531007,38.9434474 85.0929085,39.7508055 C79.911993,42.6585628 75.1510775,46.5275413 70.8365704,50.5873691 C70.0092465,51.3659836 68.261007,51.1567468 68.0514296,49.8518701 C67.1562207,44.2773914 67.7006752,38.6222317 68.1577222,33.0308485 L68.3262066,30.9549806 C68.5303732,28.475602 68.7527324,25.9961988 69.0490352,23.5269229 C69.1815423,22.4223217 69.3135085,21.3183969 69.4595366,20.2159058 L69.5719225,19.3893182 C69.7544577,18.0825393 69.8736127,16.7835804 70.2627676,15.5302732 C70.1400211,15.4905393 70.0219225,15.4254434 69.9162887,15.3252634 C68.7462887,14.214829 69.3103732,12.2879483 69.8442465,10.967009 C70.3713592,9.66318904 71.1752324,8.52527906 72.1819225,7.5458818 C72.4014296,7.3319953 72.7109366,7.19440626 73.0219225,7.18722035 C75.4626972,5.56954521 78.1403028,4.76218708 80.9271338,5.64520861 C81.0054085,5.27080157 81.085228,4.89698894 81.1692663,4.5241274 L81.2548099,4.15159609 C81.4715704,3.22651585 81.5520634,1.69845323 82.3498099,1.07961957 Z M107.365099,147.168895 C108.122493,146.960503 108.951718,147.180096 109.506718,147.735314 C110.061507,148.290531 110.281225,149.119869 110.072493,149.87756 C109.968127,150.250593 109.779465,150.574382 109.506718,150.849349 C109.251688,151.102712 108.954214,151.283546 108.614464,151.39185 L108.53531,151.415556 L108.411507,151.467126 C108.031859,151.569208 107.652,151.569208 107.272563,151.467126 C106.909606,151.365255 106.594606,151.181591 106.327141,150.916135 C106.061577,150.648566 105.877986,150.333443 105.776155,149.970132 C105.674113,149.590335 105.674113,149.210539 105.776155,148.830742 L105.827915,148.706891 L105.827915,148.706891 C105.932282,148.333858 106.120944,148.009858 106.39369,147.735314 C106.668338,147.46246 106.992211,147.273513 107.365099,147.168895 Z M152.337486,71.6664117 C152.461923,71.5235389 152.663683,71.7065683 152.586359,71.8585292 C151.406641,74.1721808 150.091711,76.4693472 148.799387,78.7242434 C148.902908,79.3492063 149.005585,79.9690967 149.123683,80.5733472 C149.627134,83.1488618 150.243824,85.6778795 150.645866,88.2779108 C152.090937,97.6236094 152.841148,107.070756 153.48488,116.500361 C154.130514,125.963782 154.21312,135.431429 154.310092,144.913449 C154.318542,145.735179 153.686641,146.690271 152.83988,146.845191 C152.452204,146.915993 152.162134,146.902255 151.775303,146.845191 C150.894106,146.715422 150.342908,145.70559 150.305092,144.913449 C150.052415,139.614052 149.712486,134.321418 149.318683,129.030263 C148.620655,119.649692 148.194106,110.244604 147.630232,100.85431 L147.431645,97.5723814 C147.218527,94.0162124 147.023584,90.4575788 146.960092,86.8961025 C146.917838,84.5365879 147.043965,82.1777072 146.96643,79.8209401 C146.89481,77.6450888 146.674246,75.2792337 147.153824,73.1414254 C147.17157,73.0613237 147.29812,73.0410341 147.334669,73.1177542 C147.833261,74.1677425 148.149106,75.3090341 148.392486,76.4739969 C149.677415,74.8482904 150.986007,73.218991 152.337486,71.6664117 Z M68.1691901,14.1901552 C68.3496127,14.1772086 68.3424296,14.448371 68.1691901,14.4684493 C65.6475059,14.7610521 63.2114901,15.787616 60.8304678,16.6601559 L60.6265141,16.7345472 C58.2210211,17.6076352 55.8757394,18.622962 53.6187676,19.8331538 C49.2060211,22.1994317 45.1539085,25.2504845 41.5712324,28.7432595 C27.2673592,42.6864611 20.7486972,62.7930599 15.9721479,81.6881988 C13.3182042,92.1861793 11.4309507,102.861694 10.2077113,113.619001 C9.60285211,118.939111 9.17524648,124.27951 8.9259507,129.628152 C8.79834507,132.369365 8.71785211,135.113115 8.68426056,137.857076 C8.66693662,139.262555 8.6618662,140.668457 8.66355634,142.073937 C8.66440141,142.718132 8.77933099,143.529083 8.60714789,144.154469 C8.44742958,144.73378 7.99700704,145.24398 7.66383803,145.726704 C7.26897887,146.299463 6.55933099,146.26924 6.15897887,145.726704 L6.01134541,145.529247 C5.58436766,144.962672 5.16658936,144.420923 5.10559859,143.68041 C5.0403169,142.886578 5.08637324,142.06823 5.08341549,141.270805 C5.07665493,139.664332 5.09651408,138.057647 5.12862676,136.451596 C5.19052817,133.373068 5.31179577,130.295807 5.49200704,127.221929 C5.85792254,120.983925 6.46024648,114.758602 7.32264085,108.569631 C8.85559859,97.5688485 11.1533451,86.6731068 14.1630634,75.9821636 C17.0025,65.8967389 20.3663028,55.8411147 25.1582746,46.499009 C29.6075704,37.825193 35.4444718,29.7560501 43.1464437,23.694101 C46.7280634,20.8751108 50.627007,18.5257409 54.8305986,16.7565276 C56.950669,15.8642067 59.177007,15.1356822 61.441162,14.7203789 C63.6801761,14.3097252 65.9094718,14.3670012 68.1691901,14.1901552 Z M107.799169,129.342279 C108.199099,129.339321 108.645085,129.427242 108.988183,129.648526 L109.446634,130.00296 L109.446634,130.00296 C109.570859,130.16253 109.694451,130.322733 109.81762,130.48336 C110.10431,130.857027 110.142338,131.4617 110.082549,131.907015 C110.069028,132.204385 109.980718,132.480831 109.81762,132.737199 L109.468606,133.189277 L109.468606,133.189277 C109.133113,133.462976 108.853394,133.658264 108.447127,133.789935 C108.234739,133.858603 108.030224,133.873002 107.826342,133.862561 L107.758394,133.858201 L107.799169,133.863696 L107.727761,133.855665 L107.727761,133.855665 C107.661423,133.849959 107.594873,133.842773 107.528113,133.833685 C107.48269,133.827978 107.437056,133.824596 107.391634,133.818256 C107.347901,133.814663 107.305648,133.812972 107.261493,133.816988 C106.745155,133.86562 106.22607,133.572667 105.859521,133.236197 C105.52931,132.93291 105.232901,132.289771 105.278958,131.833888 L105.298603,131.643363 C105.333415,131.321948 105.361923,131.195494 105.498042,130.872667 C105.630296,130.5586 105.815155,130.28152 106.066775,130.047344 C106.548465,129.59907 107.138113,129.346929 107.799169,129.342279 Z M106.200866,105.822542 C106.886218,105.075419 108.06319,105.020468 108.91312,105.472335 C109.120162,105.58266 109.310303,105.75956 109.492838,105.907083 C109.952768,106.279059 110.133401,106.950096 110.158754,107.515458 C110.183894,108.07448 109.889176,108.738331 109.492838,109.124257 L109.396711,109.217462 L109.396711,109.217462 C109.15988,109.447834 108.820585,109.648194 108.489317,109.709063 C107.955021,109.807341 107.506289,109.804382 107.008754,109.5943 C106.581237,109.413896 106.21288,109.123852 105.962243,108.730278 L105.92157,108.663724 C105.904387,108.636108 105.888143,108.608022 105.872901,108.579341 L105.850796,108.535858 C105.374599,107.619865 105.502627,106.582981 106.200866,105.822542 Z M106.555838,82.1788908 C106.864923,82.081881 107.173796,82.0681432 107.48288,82.1374661 C107.692669,82.1378888 107.888303,82.1909378 108.06957,82.2959789 C108.266472,82.3511413 108.437599,82.4508986 108.582528,82.5952509 C108.757035,82.6983898 108.896261,82.8374583 108.99957,83.012245 C109.205134,83.2369104 109.343725,83.5004642 109.415768,83.8031178 L109.498585,84.4213174 L109.415768,85.0397284 L109.181261,85.5953683 L109.181261,85.5953683 C109.116824,85.6794857 109.051965,85.7636031 108.986472,85.8472978 C108.882951,86.0225072 108.743514,86.1622098 108.568373,86.2657714 C108.4545,86.3790552 108.323937,86.4638067 108.177951,86.522562 C107.660345,86.8936932 106.970768,87.0147969 106.357458,86.8457166 C105.993232,86.7438458 105.676965,86.559337 105.408866,86.2928243 C105.142458,86.0244094 104.958021,85.708018 104.85619,85.3438614 L104.814182,85.0530126 C104.760067,84.6628856 104.75144,84.4467947 104.861894,83.9508517 C104.910275,83.7327382 105.050768,83.4252235 105.124289,83.2956658 C105.438655,82.7427734 105.952246,82.3638223 106.555838,82.1788908 Z M133.393711,65.1689753 C134.281204,65.1627194 135.168697,65.164444 136.056082,65.1742574 L136.721599,65.1831358 C137.836035,65.2006779 138.790542,65.0857033 139.666669,65.8592454 C140.302585,66.4205918 140.022444,67.3623687 139.418852,67.7852806 C138.504275,68.425672 137.357092,68.1035742 136.305824,68.0329832 C135.197092,67.9585879 134.087514,67.8968736 132.977514,67.8469949 C130.828289,67.7508305 128.678218,67.6895389 126.52688,67.6800282 C124.38019,67.6709401 122.230331,67.6912297 120.083852,67.7258912 C117.899768,67.761398 115.625683,67.9649284 113.453852,67.7387836 C113.155542,67.7077151 113.088359,67.3152376 113.382866,67.2131554 C115.429415,66.5049205 117.731599,66.2753941 119.876387,66.0046544 C122.08857,65.725038 124.300754,65.5272141 126.52688,65.3989245 C128.81343,65.2676759 131.103359,65.185038 133.393711,65.1689753 Z M106.551771,58.2125993 L106.625007,58.214029 C107.015627,58.2150153 107.381217,58.3069517 107.722122,58.4898383 L107.794796,58.5304204 L108.26381,58.8926748 C108.550923,59.1822247 108.749725,59.5231327 108.859585,59.9158215 L108.942401,60.532119 L108.942401,60.532119 C108.954655,60.8512579 108.887894,61.1488391 108.742965,61.4252853 C108.649373,61.7127217 108.489655,61.9612697 108.26381,62.1713519 C108.05381,62.3972853 107.805148,62.5570661 107.518035,62.6506943 C107.262954,62.7845278 106.989871,62.8517297 106.698288,62.8518013 L106.625007,62.8504204 C106.206908,62.8489409 105.816908,62.7434771 105.455641,62.5338176 L104.986415,62.1713519 L104.986415,62.1713519 C104.699303,61.8820133 104.5005,61.5411053 104.390641,61.1484164 L104.307613,60.532119 L104.307613,60.532119 C104.295782,60.21298 104.36212,59.9149761 104.507472,59.6389526 C104.600852,59.3515162 104.76057,59.1027569 104.986415,58.8926748 C105.196415,58.6667413 105.444866,58.5069605 105.732401,58.4135436 C105.987288,58.279515 106.260355,58.2124782 106.551771,58.2125993 L106.551771,58.2125993 Z M113.42193,3.7538771 C113.921155,3.03042505 114.826014,3.67377534 114.696507,4.25541135 C114.730732,5.88893777 114.814183,7.47427632 115.185803,9.07440939 C115.355873,9.80694951 115.578761,10.540335 115.922493,11.2113722 L116.066861,11.4939403 C116.511811,12.3732986 116.857198,13.2026253 116.257986,14.1673174 C115.975521,14.6221432 115.465099,14.9636853 114.911789,14.9398027 C112.457915,14.8339162 112.120732,11.417016 111.971577,9.50957965 C111.817775,7.54507867 112.296085,5.38613542 113.42193,3.7538771 Z" id="ðŸ–-Ink" fill="#000000"></path>
                    </g>
                    <g id="head/Long" transform="translate(78.591549, 38.043053)" fill-rule="evenodd">
                        <path d="M91.2466056,57.0757808 C90.4459014,43.9293699 86.1816761,29.0247358 73.6315352,22.5700978 C45.9641408,11.4619491 9.58723944,39.4354286 7.66132394,68.0125245 C6.98991549,77.7946614 12.4190704,88.4837025 22.3404085,91.2033581 C24.5462535,94.1269667 27.882169,95.912454 31.1747746,97.4620744 C70.3917465,117.816587 95.7242113,101.270607 91.2466056,57.0757808 L91.2466056,57.0757808 Z" id="ðŸŽ¨-Background" fill="#FFFFFF"></path>
                        <path d="M100.180796,48.898025 C98.7948803,45.0472227 97.3307958,41.2260094 95.7906549,37.4343851 C94.2906549,33.744209 92.9357801,29.974272 91.0730493,26.4589644 C79.9476972,5.46342622 59.7167113,5.46342622 49.2589648,8.20675303 C43.8357254,5.86921879 33.6778353,6.52857762 28.0307958,8.63790763 C18.8888239,12.0526943 7.74466901,25.4856963 3.93445775,31.5210153 C-4.47800704,44.8464399 -9.72800704,62.5823225 -4.13997887,77.9804595 C-3.40962676,79.992937 -2.47814789,81.8568352 -1.42941549,83.6531014 C-2.0900493,84.5488039 -2.85040141,85.397164 -3.69272535,86.2307295 C-6.19582394,88.7081777 -8.69892254,91.1040446 -10.8612465,93.8983068 C-13.0100493,96.6752384 -14.7914577,99.6282247 -16.1175845,102.884076 C-18.6181479,109.024225 -18.7385704,115.976804 -15.4326549,121.835645 C-12.5564577,126.933414 -7.4613169,130.729477 -1.72096479,131.09152 C-1.42624648,131.132522 -1.13110563,131.170142 -0.834697183,131.199943 C-0.0741338028,132.45325 0.853330986,133.607223 1.91178169,134.61325 C5.15473944,137.698964 12.8850211,139.281978 17.2941761,139.383426 C17.5202324,139.565187 17.7484014,139.746949 17.9765704,139.926596 C20.6744577,142.050667 23.5054437,144.193759 26.6026268,145.704914 C28.7005141,146.729962 31.4512183,147.585931 33.6399507,146.846205 C34.6329085,147.509845 36.2617817,147.370354 37.2462887,146.827184 C38.8645986,145.935285 40.1807958,144.329023 40.9815,142.684718 C42.9230493,138.692311 42.4561479,134.3237 41.9575563,130.058651 C41.4082606,125.347653 40.8800915,120.634542 40.3434718,115.923544 C39.9230493,112.239708 39.4836127,108.494581 38.3638944,104.946009 C37.7850211,103.107262 37.0265704,101.340373 36.0462887,99.6791601 C36.0716408,99.5396689 36.0674155,99.4001777 36.0272746,99.2691405 C35.7061479,98.2250701 35.0427676,97.6776728 34.2568521,96.9675358 C34.1554437,96.8766552 34.0540352,96.7836611 33.9547394,96.6885534 C33.5617817,96.2404908 33.1413592,95.8241307 32.6913592,95.4711757 C32.5181197,95.295755 32.346993,95.1182207 32.1758662,94.9406865 C30.7540352,93.4506669 29.4103732,91.8845613 28.2167113,90.2064399 C27.0589648,88.5790427 26.0131901,86.8797863 25.0181197,85.1488274 C24.0061479,83.3882795 23.3364296,81.4459703 22.3265704,79.6981033 C22.2399507,79.5480446 22.0202324,79.5184556 21.8976972,79.6431523 C21.5850211,79.9665182 21.3843169,80.3258137 21.4223451,80.7041307 L21.266007,80.7273793 C21.2068521,80.1567335 20.6807958,79.6917628 19.9667113,79.8164595 C18.8976972,80.0024477 18.0188239,80.0721933 17.0934718,79.7171249 C17.2561479,78.6371249 17.4061479,77.5550114 17.5540352,76.4707843 C17.8244577,74.4756376 18.0758662,72.4741503 18.2913592,70.472663 C18.8131901,70.5973597 19.3307958,70.7770074 19.837838,71.0052658 C20.5603732,71.3286317 21.2427676,71.7640133 21.8258662,72.2987295 C22.4005141,72.8271053 22.7976972,73.5393558 23.4991056,73.9071053 C24.3061479,74.3276924 25.2800915,73.6323499 25.0434718,72.7193166 C24.5638944,70.8742286 21.8491056,69.8174771 20.1695282,69.4687491 C19.5927676,69.3482795 19.003331,69.2975554 18.4138944,69.3102364 C18.546993,68.0252266 18.6653028,66.7402168 18.7624859,65.4530935 C18.8089648,64.8444047 18.8512183,64.2357159 18.8913592,63.6249135 C20.196993,63.2296885 21.5955845,63.1113323 22.9540352,63.2973205 C23.4019225,63.6545025 23.8498099,64.0074575 24.2829085,64.3646395 C25.6582606,65.5017041 27.0272746,66.6451092 28.3793873,67.8096493 C28.5019225,67.913211 28.6223451,68.0167726 28.7448803,68.1224477 C29.5476972,68.8135632 30.5491056,68.1287883 30.4138944,67.1502364 C29.3110775,59.1316063 34.2209366,52.7530544 39.9695282,47.8116845 C46.3329085,42.3398254 57.9019225,41.7026668 65.4695282,32.2246004 C68.954831,32.9342282 76.7364296,35.0418998 79.9476972,40.1608039 C84.4434718,47.3340329 83.8561479,53.7611953 84.1984014,61.8981816 C84.5406549,70.0415084 85.4110775,78.5356767 83.5624859,86.5648744 C81.8575563,93.9684751 77.2413592,100.294189 70.0793873,103.202369 C69.9019225,103.274229 69.7223451,103.343974 69.5427676,103.411606 C65.8392465,104.808632 61.7976972,105.203857 57.9019225,104.468358 C53.5899507,103.652546 49.9899507,101.678534 46.4026268,99.250119 C46.1955845,99.1127413 45.8934718,99.3959507 46.0498099,99.603074 C50.7779789,105.871724 60.0653028,107.966205 67.4322042,106.311332 C67.7765704,106.233133 68.1188239,106.148593 68.4589648,106.055598 C66.8110775,110.796186 67.1427676,115.99963 69.2892465,120.61552 C70.5800915,123.392663 72.5491056,125.795716 74.946993,127.691528 C77.5899507,129.779669 80.8688239,131.466244 82.7026268,134.397673 C84.3822042,137.083935 83.8836127,140.102017 81.0082606,141.653328 C80.2836127,142.04644 80.0047394,143.316655 80.7230493,143.87462 C80.9976972,144.08597 81.2723451,144.301548 81.553331,144.512898 C83.1631901,145.728162 87.5850211,148.010745 88.3012183,148.095285 C94.6603732,148.849806 98.9364296,144.178964 101.67657,138.669062 C104.894176,132.201743 104.057556,124.320491 100.512486,118.161743 C97.6688239,113.220373 92.0681197,108.350863 94.2948803,102.097007 C95.0892465,99.8630348 96.7138944,97.9587687 98.2920634,96.2383773 C100.092063,94.2791601 102.027275,92.4446395 103.753331,90.4156767 C105.468824,88.4015084 106.989951,86.2098059 107.839246,83.6820564 C109.079387,79.9876532 108.462486,75.9931327 107.530796,72.3050701 C105.534317,64.3878881 102.942063,56.5763812 100.180796,48.898025 Z" id="ðŸ–-Ink" fill="#000000"></path>
                    </g>
                    <g id="face/Smiling" transform="translate(112.183099, 77.354207)" fill="#000000" fill-rule="evenodd">
                        <path d="M30.968993,50.9198978 C29.548794,50.3403012 28.2816173,49.3734958 27.3551889,48.1384646 C27.0331038,47.7091169 26.9495926,47.2557326 27.017159,46.8410547 C27.0931327,46.3747786 27.3688808,45.9521824 27.7449394,45.6687178 C28.1221628,45.3843752 28.5940214,45.2441445 29.0502103,45.3156301 C29.4466117,45.3777469 29.8412104,45.5948709 30.1535058,46.0451781 L30.2187521,46.1352289 C30.7695298,46.8806513 31.4872438,47.4922614 32.3050288,47.8864795 C33.0932406,48.2664417 33.9747757,48.4437847 34.8870208,48.3406561 C36.6244504,48.1443157 37.8219743,47.2043274 39.0948115,45.9278391 C39.2525834,45.7666792 39.4104563,45.6004672 39.5690946,45.4315797 C39.6692778,45.278484 39.8083069,45.1800892 39.962667,45.1284632 C40.1340565,45.0711416 40.327938,45.0743848 40.5055187,45.1363808 C40.6767961,45.1961763 40.8299095,45.309486 40.9325762,45.4602937 C41.0301525,45.6036243 41.0854754,45.7806897 41.0675245,45.9843589 C40.9510195,47.3072301 40.2596776,48.4878363 39.2776553,49.4148615 C38.1869942,50.4444414 36.7412431,51.1567117 35.3801317,51.4065272 C33.8805866,51.6817086 32.3525901,51.4845569 30.968993,50.9198978 L30.968993,50.9198978 Z M36.0875289,30.5120405 C37.6828906,31.482148 40.1137318,33.7442494 38.3974899,36.149264 C36.3773089,38.2698449 33.4687045,35.8384541 32.0353946,34.7388307 C30.7063626,33.8866164 29.2131206,36.0784478 30.4461973,37.0735516 C40.8033244,44.7445605 45.006466,30.7657101 36.8944406,29.3714319 C36.0012775,29.2177885 35.6695544,30.2119271 36.0875289,30.5120405 Z M17.5274577,21.5886716 C17.7037243,19.3998697 21.0359789,18.9028321 21.3674577,21.0687499 C21.6642887,23.0089456 21.3148521,24.7912626 20.4412606,26.5380728 C19.6065423,28.2068947 17.5085456,27.4283107 17.3498837,25.9087021 C17.1372039,23.8717299 17.4178099,22.9502317 17.5274577,21.5886716 Z M42.8930282,20.6196517 C43.3576056,20.0109628 44.0283803,19.5954481 44.8320423,19.8302583 C47.3429577,20.5642779 46.6028873,24.1303914 45.7210563,25.8662114 C45.2419014,26.8088337 43.6930986,27.0478708 42.993169,26.2178982 C41.8523239,24.864411 41.3059859,22.1614521 42.756338,20.8282544 C42.7956338,20.7593542 42.8393662,20.68982 42.8930282,20.6196517 Z M20.4058944,12.0111429 L20.802522,11.9416942 C22.0295218,11.7294045 23.5551549,11.5254176 24.4231479,12.5122544 C24.8835,13.0355577 25.0419507,14.0081918 24.4231479,14.509092 C23.3346972,15.3904227 22.1313169,15.0488806 20.8269507,15.1234873 C19.7520211,15.1852016 18.7189225,15.3631585 17.6835,15.6592603 C15.4119507,16.3087397 13.5610352,17.4944149 11.6209648,18.7963327 C11.3663873,18.9671037 11.1065282,18.6414129 11.228007,18.4032211 C12.3479366,16.208771 14.5182887,14.4061644 16.6922324,13.3073542 C17.8525141,12.7208571 19.1222324,12.2343288 20.4058944,12.0111429 Z M40.6041287,11.0281289 L40.9077055,11.0902829 C44.2113469,11.7811043 48.5035506,13.1610768 50.0679842,16.4073021 C50.1275964,16.8663298 50.0646105,16.9647086 50.0133917,17.0289838 L49.9963385,17.0503723 C49.9541341,17.1052595 49.9204583,17.1809212 49.7215736,17.2433957 C49.6663832,17.2302408 49.6106433,17.216308 49.5543131,17.2015401 C48.8372041,17.0135386 48.2698321,16.7545401 47.720556,16.4857982 L47.1250012,16.192275 C46.4340388,15.8533498 45.7369757,15.5267598 44.9982488,15.2856588 C43.4217423,14.7712438 41.8001698,14.4088706 40.1534741,14.2153715 C39.7965654,14.1734678 39.4528848,14.0529641 39.1817455,13.8464404 C38.92438,13.6504079 38.7277692,13.3789964 38.6381257,13.0182314 C38.5219478,12.5513438 38.5553348,12.1978716 38.8057421,11.7766707 C38.9940329,11.4603578 39.263447,11.2411116 39.5728025,11.115213 C39.888177,10.9868648 40.2472278,10.9566068 40.6041287,11.0281289 Z" id="ðŸ–-Ink"></path>
                    </g>
                    <g id="facial-hair/*-None" transform="translate(104.577451, 109.479380)"></g>
                    <g id="accessories/*-None" transform="translate(88.521127, 88.978474)"></g>
                </g>
            </g>
        </g>
    </g>
</svg>